<svg xmlns="http://www.w3.org/2000/svg" xmlns:xlink="http://www.w3.org/1999/xlink" width="279" height="100" viewBox="0 0 279 100">
    <defs>
        <path id="a" d="M103.432.145s-2.235 5.466-3.992 7.49l-.325-.514s-1.82 4.163-4.485 7.716l-.389-.45s-1.798 3.679-2.436 6.246l-.516-.411s-1.39 3.328-2.093 6.828l-.473-.445s-1.373 4.82-1.414 7.437l-.614-.28s-.975 4.97-.726 7.364l-.577-.332s-.436 4.034.119 6.721l-.55-.171s.209 3.98 1.308 6.202l-.484-.088s.706 2.933 1.835 5.5c-.25.073-.463.058-1.096.344-.103.046-.85.183-1.206.268-2.747.659-5.487 1.345-8.244 1.954-2.564.566-5.145 1.05-7.72 1.562-.344.067-.695.079-1.045.117a8.304 8.304 0 0 0-.08-.207c3.068-2.192 5.374-4.599 5.374-4.599l-.682.103c2.481-2.552 3.892-6.135 3.892-6.135l-.748.337c2.436-4.449 2.864-7.27 2.864-7.27l-.728.148c1.994-3.339 2.127-7.298 2.127-7.298l-.695.264c1.415-3.59.898-7.165.898-7.165l-.79.305c.682-2.743-.257-7.052-.257-7.052l-.616.495c-.973-5.054-1.713-6.41-1.713-6.41l-.597.405c-1.39-2.497-1.617-7.186-1.617-7.186l-.885.519c-.44-2.463-.807-6.643-.807-6.643s-1.567 5.497-3.099 7.693l-.402-.422s-.754 4.207-3.015 7.992l-.46-.354s-1.353 3.751-1.669 6.263l-.585-.295s-.984 3.35-1.237 6.744l-.547-.334s-.77 4.74-.462 7.193l-.667-.155s-.34 4.812.233 7.002l-.637-.208s.089 3.842 1.015 6.254l-.588-.064s.744 3.679 2.167 5.56l-.51.004s1.167 2.742 2.719 4.97c-.435.207-1.026.342-1.382.434-2.778.727-5.58 1.302-8.41 1.671-2.14.254-4.3.39-6.52.384-.222 0-.445-.09-.666-.125-.033-.08-.589-.182-.37-.774 1.07-1.266 3.03-3.702 3.707-5.315l-.709-.025s2.237-3.076 2.35-7.124l-.65.172s1.2-3.049.754-8.302l-.609.302s.417-3.538-1.135-8.412l-.456.399s-.405-3.754-2.48-7.773l-.356.378s-.89-3.35-3.456-7.257l-.325.414s-1.252-2.298-3.293-7.78c0 0-.733 3.838-1.37 7.341l-.437-.486s-2.802 5.809-2.48 7.268l-.523-.473s-.927 3.952.03 8.579l-.577-.319s-.247 4.496 1.304 7.984l-.65-.334s.902 4.323 2.75 7.818l-.666-.33s1.165 3.974 3.41 7.292l-.657-.233s2.108 3.286 4.767 6.025c.186.686-1.217 1.208-2.072 1.322-4.41.595-6.133.542-10.555.18-.391-.032-1.997.063-2.067-.96.097-.693.239-1.168.239-1.168l-.668.013c.292-1.009 1.403-2.48 1.403-2.48l-.587-.073c.801-1.106 1.35-3.136 1.35-3.136l-.693-.072c.834-1.597.476-3.532.476-3.532l-.666.024c.409-1.622-.156-4.122-.156-4.122l-.58.183c-.4-1.701-2.348-4.787-2.348-4.787l-.519.364c-1.116-2.058-3.19-4.212-3.19-4.212l-.156.526c-1.569-1.901-3.959-4.001-3.959-4.001l-.023.605c-2.51-1.629-3.776-3.463-3.776-3.463l-.181.453c-2.42-2.069-3.387-4.646-3.387-4.646.619 1.832.054 4.413.054 4.413l-.57-.422c-.928 1.588-.922 3.918-.922 3.918l-.478-.562c-.311 1.943.386 3.896.386 3.896l-.678-.252c.468 1.878 1.871 4.093 1.871 4.093l-.61-.078c.865 1.693 2.381 3.428 2.381 3.428l-.514.036c1.264 1.99 3.301 3.34 3.301 3.34l-.66.137c2.254 2.347 4.304 3.677 4.304 3.677l-.537.09c2.773 2.682 3.941 3.187 3.941 3.187h-.66a44.492 44.492 0 0 0 4.043 3.331l-.7-.091c.686.726 1.267 1.36 1.753 1.904-.38.035-.784.07-1.134.1-.092-.007-.185-.02-.28-.026.009.02.038.031.066.044l-.335.025a1.906 1.906 0 0 0-.16-.013c-2.692-.05-5.39-.095-8.076-.29-5.785-.416-9.614-.803-15.1-2.478-1.002-.307-1.435-.448-2.508-.46-.664-.008-1.23.615-1.461 1.285l-.011-.002c-.459 1.042-.176 3.052 1.195 2.975.896-.05 1.45-.088 2.32-.287.803-.186 2.202-.208 3.948-.138 1.95.207 5.013.414 8.172.608 3.838.338 7.766.686 10.598.708.352.018.706.033 1.058.045.168.007 4.699.1 5.758.1 1.357.043 2.715.079 4.072.098 1.863.028 3.343-.066 5.203-.125.131-.004 5.477-.317 5.85-.36 2.677-.308 5.363-.714 8.033-1.07 2.079-.28 4.138-.692 6.21-1.022 1.05-.169 1.437.04 1.437.04.677-.146 2.473-.502 2.459-.53-.013-.117-.222-.39 1.216-.705 5.656-1.24 12.737-2.707 18.391-3.962.683-.15 1.068-.108 1.312.353 1.83-.29.477-.063 2.322-.347.017-.071-.002-.188.16-.347.185-.061.823-.13.907-.142 4.71-.668 9.439-.624 14.179-1.016 1.573-.132.952.277 1.092.587.098.219.019.34-.239.58l4.91-.148-.375-.679c-.33-.463-.176-1.314 3.268-.52 2.024.467 3.841.748 6.044 1.468l-.013-.003c.004 0 .01.003.017.005h-.002c.414.13.834.28 1.254.46 2.222.944 3.781 1.453 4.77 1.888h.392c.027.014.059.027.084.04.93.492 1.653 1.379 2.66 1.719.63.213.633.154.652.094.01-.035.024-.07.18-.047.214.03.504-.152.8-.3.904.41 1.524.61 1.524.61l-.351-.7c.622.298 1.202.553 1.75.775h-.002c3.07 1.25 4.9 1.373 4.9 1.373l-.181-.7c3.1 1.654 6.623 1.426 6.623 1.426l-.283-.66c3.284 1.065 6.418.235 6.418.235l-.266-.61c.177-.026.33-.052.458-.077 2.455.19 5.722-.95 5.722-.95l-.031-.037-.105-.122c.005.002.012.002.017.005.162.05.348.09.557.117h.707c.268-.093.138-.364.538-.696.564-.47.829-.028.829-.028l-.198-.77 1.616-.697h.427c.524-.26.727-.405.727-.405l-.223-.306c.635-.308.862-.475.862-.475l-.212-.293c.637-.347 1.358-.633 2.06-.87h-.004c1.741-.583 3.379-.84 3.379-.84l-.337-.53c.529.247.922.418 1.032.414.414-.014 2.041-.97 2.041-.97s-.85-.084-1.368-.215c1.304-.272 2.259-.364 2.259-.364s-.553-.176-1.345-.475c1.16-.227 1.984-.306 1.984-.306s-3.26-1.04-5.315-2.344l.345-.432s-3.823-.909-7.339-2.783l.282-.483s-3.396-.982-5.646-1.069l-.002-.067.195-.534s-1.087-.237-2.606-.414a.751.751 0 0 1-.18-.278c-.03-.085-.068-.164-.101-.247-.02-.05-.035-.105-.01-.157.041-.083.06-.175.104-.259.048-.095.093-.195.123-.298.115-.395.324-.734.594-1.038.08-.092.156-.183.211-.29.02-.039.045-.05.085-.041.063.014.129.012.194.008.092-.005.12-.028.15-.116a.772.772 0 0 1 .07-.17c.043-.076.07-.157.098-.237a.499.499 0 0 0 .003-.318 1.98 1.98 0 0 0-.257-.532c-.071-.114-.179-.21-.236-.34-.02-.045-.067-.072-.105-.106-.02-.017-.044-.032-.061-.053-.047-.055-.028-.123.041-.145.016-.005.032-.004.046-.006.136-.026.155-.057.144-.198-.013-.2-.023-.4.05-.596.055-.148.071-.309.085-.468.014-.166.027-.331.05-.496.019-.13.04-.261.107-.377.038-.069.054-.108.145-.031.236.201.497.365.792.468a.71.71 0 0 1 .267.18c.099.1.196.198.296.295.05.049.11.098.183.085.08-.015.168-.031.226-.097a.196.196 0 0 1 .103-.069c.057-.015.078-.06.106-.11.05-.095.068-.227.215-.238.042-.004.05-.05.018-.081a.192.192 0 0 0-.067-.042.57.57 0 0 1-.173-.115.506.506 0 0 0-.385-.156.442.442 0 0 1-.28-.093c-.206-.151-.394-.324-.585-.492-.078-.068-.158-.136-.234-.206-.058-.055-.054-.06.005-.115.101-.1.195-.2.176-.36a3.428 3.428 0 0 0-.19-.835 1.38 1.38 0 0 1-.08-.268.42.42 0 0 0-.111-.21c-.073-.082-.173-.115-.286-.171.225-.033.32-.13.345-.333a.348.348 0 0 1 .092-.221c.073-.073.116-.174.206-.234.033-.021.044-.065.046-.103a.518.518 0 0 1 .088-.238c.044-.07.064-.146.044-.231-.014-.056 0-.069.058-.064.026.003.053.01.077.018.125.03.252.046.378.049.098 0 .18-.033.247-.107a.933.933 0 0 1 .134-.13c.067-.05.065-.092-.002-.148a.64.64 0 0 0-.214-.11c-.173-.054-.346-.111-.518-.169a.45.45 0 0 1-.214-.167c-.105-.138-.19-.29-.286-.435a.359.359 0 0 0-.126-.135 2.644 2.644 0 0 0-.668-.28c-.12-.028-.24-.01-.356-.026a.743.743 0 0 0-.403.078c-.21.09-.362.247-.487.432-.118.174-.21.362-.205.582 0 .056-.015.114-.022.17-.005.04-.023.056-.062.052-.038-.004-.084-.009-.106.027-.047.075-.132.075-.199.112a.077.077 0 0 1-.066.001c-.105-.043-.105-.042-.145.057a.243.243 0 0 1-.028.05c-.034.039-.04.08-.034.128.014.094-.03.148-.12.125-.081-.02-.145.01-.213.03-.093.028-.083.109-.084.182-.002.076.019.1.096.124.054.016.112.028.166.044.043.014.052.046.02.077a.087.087 0 0 1-.037.025c-.115.032-.186.122-.266.2a.34.34 0 0 0-.092.195.13.13 0 0 0 .056.142c.055.036.107.076.154.12a.096.096 0 0 0 .098.024c.097-.028.192-.064.242-.161.054-.103.114-.205.156-.313.062-.178.18-.314.31-.44.062-.059.136-.087.224-.059.04.013.082.02.125.024.044.005.07.032.102.064.08.076.067.174.084.27.009.062-.035.086-.063.124a.092.092 0 0 0-.016.055c.003.068-.04.096-.093.116-.08.03-.164.05-.24.089-.329.178-.703.25-1.033.428-.159.087-.35.107-.53.13a2.691 2.691 0 0 0-.542.121.455.455 0 0 0-.277.247 2.207 2.207 0 0 0-.151.476 2.075 2.075 0 0 0-.008.773c.022.117.038.237.033.357a.296.296 0 0 1-.054.172c-.092.13-.12.266-.022.408.027.038.051.079.074.119.046.083.113.12.208.12.054-.002.107-.005.161.012.065.022.13.016.189-.019a.161.161 0 0 1 .184 0c.072.044.121.013.138-.074.008-.053.013-.106.021-.16a.543.543 0 0 0-.129-.465c-.034-.035-.062-.078-.096-.114a.298.298 0 0 1-.085-.254c.006-.052.012-.102.006-.151-.007-.148.03-.292.038-.44.002-.067.033-.134.061-.199a.15.15 0 0 1 .11-.091c.144-.03.289-.042.435-.016.112.016.155.092.203.181.043.078-.024.103-.045.152a2.722 2.722 0 0 0-.235.834c-.034.294-.017.594.067.885.03.115.054.235-.04.34-.024.025-.03.062-.035.098-.026.23-.053.46-.049.692.002.066.02.12.07.165.026.027.06.053.066.093.02.135.073.26.099.393.04.207.008.41-.072.601-.04.093-.099.177-.129.272a.42.42 0 0 1-.118.195.269.269 0 0 0-.1.202c0 .05-.028.075-.071.094a.362.362 0 0 0-.158.132c-.051.075-.115.134-.176.2-.091.095-.18.19-.266.289a.473.473 0 0 0-.09.133c-.047.124-.127.222-.203.325-.113.157-.23.309-.333.473-.01.01-.018.02-.024.03-.195.039-.393.056-.595.046-.184-.009-.369-.034-.55-.04-.161-.006-.273-.025-.406-.12-.247-.178-.36-.423-.43-.704a.258.258 0 0 1 .009-.182.217.217 0 0 0-.116-.291c-.175-.067-.177-.227-.161-.333.068-.49-.084-.943-.221-1.39-.162-.521-.28-1.04-.268-1.589.004-.25.028-.5.023-.744-.004-.286-.123-.567-.24-.828-.115-.256-.18-.522-.249-.79-.108-.438-.297-.855-.386-1.303-.014-.07-.024-.14-.042-.208-.046-.176-.093-.345.19-.345.044 0 .11-.078.126-.133.07-.22.16-.437.116-.674-.014-.069-.023-.123.04-.166.194-.133.168-.353.213-.544.039-.171-.007-.359.153-.505.054-.05.025-.188.039-.344.33.48.737.836.837 1.391.026.144.076.3.23.39.059.037.132.126.126.18-.034.237.15.232.28.257.187.037.383.039.574.062.106.01.169-.027.16-.138-.007-.12.09-.2.108-.307.03-.169-.035-.33-.047-.488-.02-.237-.09-.454-.134-.678-.047-.245-.128-.462-.353-.612-.151-.1-.132-.29-.074-.42.09-.209-.013-.287-.168-.33-.146-.04-.238-.104-.262-.26a.445.445 0 0 0-.2-.304.548.548 0 0 1-.251-.386c-.052-.265-.13-.523-.17-.795-.044-.28-.013-.564-.077-.835-.068-.286-.145-.587-.06-.86.206-.66-.159-1.177-.361-1.74a3.617 3.617 0 0 0-.175-.387c-.038-.074.022-.09.054-.123l.29-.312c.103-.11.059-.218-.041-.273-.135-.077-.187-.204-.265-.31.01-.042.034-.044.062-.044.249.006.352-.132.38-.38.002-.026-.037-.03-.004-.023.125.033.182-.013.225-.058.037-.042.066-.081.123-.07.041.01.046-.037.068-.058.036-.037.04-.085.037-.13-.029-.378.135-.702.29-1.03.14-.303.013-.587-.153-.813a2.44 2.44 0 0 0-1.178-.872c-.301-.105-.62-.181-.94-.042-.031.014-.076.078-.123-.013-.164-.311-.257-.348-.586-.277a.862.862 0 0 0-.646.83c.005.124.067.24.143.327.09.1.095.196.073.314a.803.803 0 0 0 .087.563c.058.101.059.234.086.353.019.071-.027.103-.08.099-.194-.011-.221.156-.294.27-.066.101-.22.19-.084.35.03.034.007.074-.048.103-.45.245-.758.629-1.038 1.05a.768.768 0 0 1-.51.333c-.292.045-.393.263-.503.48-.09.175-.048.37-.024.548.042.332.03.666.105.995.073.322-.208.572-.28.871-.124.511-.464.913-.689 1.372-.045.09-.11.189-.076.273.071.177-.037.262-.117.394-.2.343-.384.7-.269 1.125.048.18-.05.345-.052.523-.006.38-.041.758-.06 1.138-.008.17.009.34.146.46.055.047.032.091.032.14 0 .225.051.424.281.526.032.013.05.026.065.06.11.25.377.27.578.39.06.036.134-.005.18-.072.076-.111.148-.227.185-.359.016-.069-.009-.14.13-.121.139.02.103.086.105.163.004.19-.006.382.02.569.06.402-.018.799-.022 1.197 0 .13-.075.252-.132.375-.095.207-.17.419-.344.583-.044.04-.052.159-.031.227.083.244-.08.403-.184.58-.25.417-.524.819-.738 1.258-.063.13-.123.27-.151.414-.094.49-.284.947-.465 1.406-.06.155-.063.317-.101.474a1.161 1.161 0 0 1-.167.376c-.155.244-.337.488-.275.811a.14.14 0 0 1-.016.075c-.185.356-.303.735-.416 1.117-.833.125-1.637.295-2.216.527l.14-.644s-3.403.434-5.477 1.56l.015-.58s-3.212 1.06-4.781 2.626l-.039-.5s-1.407.836-2.911 2.01l-.501-.026-.497.018s-3.994 2.159-5.791 3.009c-.137.066-.264.12-.394.178-1.93.72-4.057.612-6.164.43l-1.275-.11c-.004-.043-.218-.086-.478-.129 3.757-.981 6.927-2.54 6.927-2.54l-.663-.137c3.143-1.516 5.64-4.34 5.64-4.34l-.8.058c3.733-3.28 5.071-5.735 5.071-5.735l-.72-.109c2.955-2.405 4.404-6.009 4.404-6.009l-.73.01c2.507-2.833 3.227-6.302 3.227-6.302l-.831.014c1.549-2.298 2.125-6.587 2.125-6.587l-.735.248c.793-4.986.565-6.486.565-6.486l-.684.172c-.448-2.77.915-7.17.915-7.17l-.992.179c.422-2.417 1.997-6.206 1.997-6.206s-3.285 4.538-5.431 6.045l-.23-.525s-2.618 3.434-5.97 6.16l-.303-.482s-2.506 3.001-3.635 5.21l-.442-.47s-2.028 2.757-3.397 5.799l-.392-.492s-2.296 4.11-2.834 6.472l-.562-.368s-1.925 4.322-2.13 6.533l-.517-.405s-1.203 3.571-1.158 6.107l-.519-.257s-.546 3.641.134 5.855l-.47-.169s.162 2.967.859 5.56a.182.182 0 0 0-.016-.004c-.168.32-.504.64-.813.739-1.135.369-2.302.746-3.481.854-3.777.347-7.562.613-11.346.892 2.961-1.676 5.211-3.553 5.211-3.553l-.664-.016c2.708-2.226 4.537-5.718 4.537-5.718l-.758.22c2.92-4.218 3.708-7.091 3.708-7.091l-.713.025c2.35-3.136 3.014-7.25 3.014-7.25l-.699.152c1.833-3.502 1.826-7.331 1.826-7.331l-.795.176c1.022-2.747.712-7.42.712-7.42l-.655.406c-.242-5.458-.764-7.008-.764-7.008l-.622.318c-.988-2.86-.565-7.806-.565-7.806l-.914.384c-.085-2.655.664-6.99.664-6.99zm37.645 47.583c.002-.002.004-.014 0-.018-.172-.203.015-.311.114-.442a.563.563 0 0 0 .123-.381c-.023-.359.168-.631.361-.897.229-.313.322-.685.483-1.025.056-.118.094-.246.18-.341.131-.146.083-.335.15-.498.128-.31.316-.592.434-.903.185-.475.556-.815.81-1.24.1-.164.206-.326.281-.504.047-.114.113-.213.195-.332.163.246.253.512.362.767.24.567.445 1.148.62 1.74.073.238.03.488.056.734.046.415.124.824.201 1.233.051.27.151.515.285.753a.807.807 0 0 1 .121.425c-.01.292.25.456.333.705.016.049.06.098.055.143-.024.21.038.388.126.556-1.15.01-2.382.08-3.262.294l.09-.668s-.939.024-2.13.125c-.051-.058-.077-.124.012-.226zm8.289 1.015c.062-.046.11-.109.17-.156.044-.036.049-.096.093-.132.143-.11.272-.238.417-.349.187-.144.37-.294.52-.477a.66.66 0 0 1 .46-.256.63.63 0 0 0 .27-.096c.042-.025.088-.046.13-.072.105-.066.216-.123.294-.221.155-.195.29-.402.404-.622.08-.156.191-.29.303-.424.008-.008.02-.015.033.004-.05.084-.107.172-.115.273-.015.16-.094.293-.154.434-.12.285-.25.566-.302.875a.262.262 0 0 1-.033.11c-.07.094-.113.204-.169.304-.063.107-.159.18-.222.281-.064.103-.14.193-.232.273a.348.348 0 0 0-.08.422 23.198 23.198 0 0 0-1.828-.049c-.014-.043-.006-.084.041-.122z"/>
        <linearGradient id="b" x1="100%" x2="0%" y1="50%" y2="50%">
            <stop offset="0%" stop-color="#37A93F"/>
            <stop offset="14.849%" stop-color="#37A93F"/>
            <stop offset="29.375%" stop-color="#37A93F"/>
            <stop offset="51.912%" stop-color="#AFCA2B"/>
            <stop offset="66.684%" stop-color="#C6D326"/>
            <stop offset="81.321%" stop-color="#DFDC07"/>
            <stop offset="100%" stop-color="#DFDC07"/>
        </linearGradient>
    </defs>
    <g fill="none" fill-rule="evenodd">
        <g fill="#5FC3E1">
            <path d="M158.83 67.85c.028.293.073.58.132.863l19.386-.037a9.694 9.694 0 0 0-1.336-.731l.482-.35s-.873-.61-1.947-1.242h-17.122c.001 1.176.08 1.955.08 1.955l.326-.459zM180.875 71.183l-21.115-.09c.417.905.81 1.492.81 1.492l.212-.588c.231.492.462.938.69 1.345h21.949c-.655-.645-1.545-1.452-2.546-2.159M168.693 62.99l.378-.336s-2.808-.947-4.842-.792l-.317-.519s-4.463.122-4.885.15l-.149.133c-.171.797-.279 1.593-.347 2.345h13.19c-.888-.388-2.01-.81-3.028-.981M186.614 78.328l.492-.147s-.964-1.32-2.064-2.457h-21.955c.462.551.763.806.763.806l.321-.504c1.02 2.5 3.508 4.094 3.508 4.094l.227-.529c.19.282.397.543.616.788h19.088a18.556 18.556 0 0 1-.996-2.05M102.056 71.202l-3.422.007c-.482.72-.916 1.452-1.291 2.133h7.703c-.79-.7-1.948-1.485-2.99-2.14M108.903 79.13c-.49-1.38-1.32-2.537-2.105-3.407H96.153c-.223.493-.348.799-.348.799l.582-.314c-.635 1.454-.998 2.97-1.204 4.171h13.914c-.495-.835-.87-1.259-.87-1.259l.676.01zM117.91 68.049c-.087.287-.322.496-.474.744l5.89-.013c-.998-.518-2.292-1.287-3.458-2.276l-2.447.53c.66.35.585.698.49 1.015M129.512 73.333s-1.252-1.194-2.59-2.178l-10.811.02a29.3 29.3 0 0 0-.975 2.168s14.38-.008 14.376-.01M132.75 77.692s-.628-.908-1.543-1.967h-16.163c-.244 1.926-.022 3.529-.022 3.529l.532-.515c-.01.586 0 1.13.025 1.64h18.572c-.653-.98-1.416-2.005-2.1-2.62l.698-.067zM143.002 61.832l-2.313.347c-.077.446-.75 1.507-.944 1.791h5.15c-.081-.04-2.01-1.106-1.893-2.138M158.668 77.588s-.545-.848-1.298-1.863h-19.42c.28 2.779 1.04 4.259 1.04 4.259l.61-.351c-.01.25-.001.5.016.747h20.309c-.593-.964-1.3-1.994-1.97-2.672l.713-.12zM151.18 68.703l.59-.155s-1.397-1.213-3.055-2.196h-10.373a21.835 21.835 0 0 0-1.048 2.402l13.921-.027c-.011-.007-.023-.017-.036-.024M154.739 72.788l.713-.072s-.583-.727-1.444-1.612l-16.776.032c-.088.843-.078 1.62-.037 2.206h18.166a7.387 7.387 0 0 0-.622-.554M82.294 71.235l-2.031.004a74.513 74.513 0 0 1-1.798 2.103h4.776a42.07 42.07 0 0 1-.947-2.107M83.862 75.724l-7.025.019s-1.163.507-3.924 3.194l.534.09s-.723.476-1.78 1.353h12.88c-.018-.68-.139-1.549-.548-2.338l.69-.073s-.321-1.19-.827-2.245"/>
        </g>
        <g transform="translate(52)">
            <mask id="c" fill="#fff">
                <use xlink:href="#a"/>
            </mask>
            <path fill="url(#b)" d="M103.432.145s-2.235 5.466-3.992 7.49l-.325-.514s-1.82 4.163-4.485 7.716l-.389-.45s-1.798 3.679-2.436 6.246l-.516-.411s-1.39 3.328-2.093 6.828l-.473-.445s-1.373 4.82-1.414 7.437l-.614-.28s-.975 4.97-.726 7.364l-.577-.332s-.436 4.034.119 6.721l-.55-.171s.209 3.98 1.308 6.202l-.484-.088s.706 2.933 1.835 5.5c-.25.073-.463.058-1.096.344-.103.046-.85.183-1.206.268-2.747.659-5.487 1.345-8.244 1.954-2.564.566-5.145 1.05-7.72 1.562-.344.067-.695.079-1.045.117a8.304 8.304 0 0 0-.08-.207c3.068-2.192 5.374-4.599 5.374-4.599l-.682.103c2.481-2.552 3.892-6.135 3.892-6.135l-.748.337c2.436-4.449 2.864-7.27 2.864-7.27l-.728.148c1.994-3.339 2.127-7.298 2.127-7.298l-.695.264c1.415-3.59.898-7.165.898-7.165l-.79.305c.682-2.743-.257-7.052-.257-7.052l-.616.495c-.973-5.054-1.713-6.41-1.713-6.41l-.597.405c-1.39-2.497-1.617-7.186-1.617-7.186l-.885.519c-.44-2.463-.807-6.643-.807-6.643s-1.567 5.497-3.099 7.693l-.402-.422s-.754 4.207-3.015 7.992l-.46-.354s-1.353 3.751-1.669 6.263l-.585-.295s-.984 3.35-1.237 6.744l-.547-.334s-.77 4.74-.462 7.193l-.667-.155s-.34 4.812.233 7.002l-.637-.208s.089 3.842 1.015 6.254l-.588-.064s.744 3.679 2.167 5.56l-.51.004s1.167 2.742 2.719 4.97c-.435.207-1.026.342-1.382.434-2.778.727-5.58 1.302-8.41 1.671-2.14.254-4.3.39-6.52.384-.222 0-.445-.09-.666-.125-.033-.08-.589-.182-.37-.774 1.07-1.266 3.03-3.702 3.707-5.315l-.709-.025s2.237-3.076 2.35-7.124l-.65.172s1.2-3.049.754-8.302l-.609.302s.417-3.538-1.135-8.412l-.456.399s-.405-3.754-2.48-7.773l-.356.378s-.89-3.35-3.456-7.257l-.325.414s-1.252-2.298-3.293-7.78c0 0-.733 3.838-1.37 7.341l-.437-.486s-2.802 5.809-2.48 7.268l-.523-.473s-.927 3.952.03 8.579l-.577-.319s-.247 4.496 1.304 7.984l-.65-.334s.902 4.323 2.75 7.818l-.666-.33s1.165 3.974 3.41 7.292l-.657-.233s2.108 3.286 4.767 6.025c.186.686-1.217 1.208-2.072 1.322-4.41.595-6.133.542-10.555.18-.391-.032-1.997.063-2.067-.96.097-.693.239-1.168.239-1.168l-.668.013c.292-1.009 1.403-2.48 1.403-2.48l-.587-.073c.801-1.106 1.35-3.136 1.35-3.136l-.693-.072c.834-1.597.476-3.532.476-3.532l-.666.024c.409-1.622-.156-4.122-.156-4.122l-.58.183c-.4-1.701-2.348-4.787-2.348-4.787l-.519.364c-1.116-2.058-3.19-4.212-3.19-4.212l-.156.526c-1.569-1.901-3.959-4.001-3.959-4.001l-.023.605c-2.51-1.629-3.776-3.463-3.776-3.463l-.181.453c-2.42-2.069-3.387-4.646-3.387-4.646.619 1.832.054 4.413.054 4.413l-.57-.422c-.928 1.588-.922 3.918-.922 3.918l-.478-.562c-.311 1.943.386 3.896.386 3.896l-.678-.252c.468 1.878 1.871 4.093 1.871 4.093l-.61-.078c.865 1.693 2.381 3.428 2.381 3.428l-.514.036c1.264 1.99 3.301 3.34 3.301 3.34l-.66.137c2.254 2.347 4.304 3.677 4.304 3.677l-.537.09c2.773 2.682 3.941 3.187 3.941 3.187h-.66a44.492 44.492 0 0 0 4.043 3.331l-.7-.091c.686.726 1.267 1.36 1.753 1.904-.38.035-.784.07-1.134.1-.092-.007-.185-.02-.28-.026.009.02.038.031.066.044l-.335.025a1.906 1.906 0 0 0-.16-.013c-2.692-.05-5.39-.095-8.076-.29-5.785-.416-9.614-.803-15.1-2.478-1.002-.307-1.435-.448-2.508-.46-.664-.008-1.23.615-1.461 1.285l-.011-.002c-.459 1.042-.176 3.052 1.195 2.975.896-.05 1.45-.088 2.32-.287.803-.186 2.202-.208 3.948-.138 1.95.207 5.013.414 8.172.608 3.838.338 7.766.686 10.598.708.352.018.706.033 1.058.045.168.007 4.699.1 5.758.1 1.357.043 2.715.079 4.072.098 1.863.028 3.343-.066 5.203-.125.131-.004 5.477-.317 5.85-.36 2.677-.308 5.363-.714 8.033-1.07 2.079-.28 4.138-.692 6.21-1.022 1.05-.169 1.437.04 1.437.04.677-.146 2.473-.502 2.459-.53-.013-.117-.222-.39 1.216-.705 5.656-1.24 12.737-2.707 18.391-3.962.683-.15 1.068-.108 1.312.353 1.83-.29.477-.063 2.322-.347.017-.071-.002-.188.16-.347.185-.061.823-.13.907-.142 4.71-.668 9.439-.624 14.179-1.016 1.573-.132.952.277 1.092.587.098.219.019.34-.239.58l4.91-.148-.375-.679c-.33-.463-.176-1.314 3.268-.52 2.024.467 3.841.748 6.044 1.468l-.013-.003c.004 0 .01.003.017.005h-.002c.414.13.834.28 1.254.46 2.222.944 3.781 1.453 4.77 1.888h.392c.027.014.059.027.084.04.93.492 1.653 1.379 2.66 1.719.63.213.633.154.652.094.01-.035.024-.07.18-.047.214.03.504-.152.8-.3.904.41 1.524.61 1.524.61l-.351-.7c.622.298 1.202.553 1.75.775h-.002c3.07 1.25 4.9 1.373 4.9 1.373l-.181-.7c3.1 1.654 6.623 1.426 6.623 1.426l-.283-.66c3.284 1.065 6.418.235 6.418.235l-.266-.61c.177-.026.33-.052.458-.077 2.455.19 5.722-.95 5.722-.95l-.031-.037-.105-.122c.005.002.012.002.017.005.162.05.348.09.557.117h.707c.268-.093.138-.364.538-.696.564-.47.829-.028.829-.028l-.198-.77 1.616-.697h.427c.524-.26.727-.405.727-.405l-.223-.306c.635-.308.862-.475.862-.475l-.212-.293c.637-.347 1.358-.633 2.06-.87h-.004c1.741-.583 3.379-.84 3.379-.84l-.337-.53c.529.247.922.418 1.032.414.414-.014 2.041-.97 2.041-.97s-.85-.084-1.368-.215c1.304-.272 2.259-.364 2.259-.364s-.553-.176-1.345-.475c1.16-.227 1.984-.306 1.984-.306s-3.26-1.04-5.315-2.344l.345-.432s-3.823-.909-7.339-2.783l.282-.483s-3.396-.982-5.646-1.069l-.002-.067.195-.534s-1.087-.237-2.606-.414a.751.751 0 0 1-.18-.278c-.03-.085-.068-.164-.101-.247-.02-.05-.035-.105-.01-.157.041-.083.06-.175.104-.259.048-.095.093-.195.123-.298.115-.395.324-.734.594-1.038.08-.092.156-.183.211-.29.02-.039.045-.05.085-.041.063.014.129.012.194.008.092-.005.12-.028.15-.116a.772.772 0 0 1 .07-.17c.043-.076.07-.157.098-.237a.499.499 0 0 0 .003-.318 1.98 1.98 0 0 0-.257-.532c-.071-.114-.179-.21-.236-.34-.02-.045-.067-.072-.105-.106-.02-.017-.044-.032-.061-.053-.047-.055-.028-.123.041-.145.016-.005.032-.004.046-.006.136-.026.155-.057.144-.198-.013-.2-.023-.4.05-.596.055-.148.071-.309.085-.468.014-.166.027-.331.05-.496.019-.13.04-.261.107-.377.038-.069.054-.108.145-.031.236.201.497.365.792.468a.71.71 0 0 1 .267.18c.099.1.196.198.296.295.05.049.11.098.183.085.08-.015.168-.031.226-.097a.196.196 0 0 1 .103-.069c.057-.015.078-.06.106-.11.05-.095.068-.227.215-.238.042-.004.05-.05.018-.081a.192.192 0 0 0-.067-.042.57.57 0 0 1-.173-.115.506.506 0 0 0-.385-.156.442.442 0 0 1-.28-.093c-.206-.151-.394-.324-.585-.492-.078-.068-.158-.136-.234-.206-.058-.055-.054-.06.005-.115.101-.1.195-.2.176-.36a3.428 3.428 0 0 0-.19-.835 1.38 1.38 0 0 1-.08-.268.42.42 0 0 0-.111-.21c-.073-.082-.173-.115-.286-.171.225-.033.32-.13.345-.333a.348.348 0 0 1 .092-.221c.073-.073.116-.174.206-.234.033-.021.044-.065.046-.103a.518.518 0 0 1 .088-.238c.044-.07.064-.146.044-.231-.014-.056 0-.069.058-.064.026.003.053.01.077.018.125.03.252.046.378.049.098 0 .18-.033.247-.107a.933.933 0 0 1 .134-.13c.067-.05.065-.092-.002-.148a.64.64 0 0 0-.214-.11c-.173-.054-.346-.111-.518-.169a.45.45 0 0 1-.214-.167c-.105-.138-.19-.29-.286-.435a.359.359 0 0 0-.126-.135 2.644 2.644 0 0 0-.668-.28c-.12-.028-.24-.01-.356-.026a.743.743 0 0 0-.403.078c-.21.09-.362.247-.487.432-.118.174-.21.362-.205.582 0 .056-.015.114-.022.17-.005.04-.023.056-.062.052-.038-.004-.084-.009-.106.027-.047.075-.132.075-.199.112a.077.077 0 0 1-.066.001c-.105-.043-.105-.042-.145.057a.243.243 0 0 1-.028.05c-.034.039-.04.08-.034.128.014.094-.03.148-.12.125-.081-.02-.145.01-.213.03-.093.028-.083.109-.084.182-.002.076.019.1.096.124.054.016.112.028.166.044.043.014.052.046.02.077a.087.087 0 0 1-.037.025c-.115.032-.186.122-.266.2a.34.34 0 0 0-.092.195.13.13 0 0 0 .056.142c.055.036.107.076.154.12a.096.096 0 0 0 .098.024c.097-.028.192-.064.242-.161.054-.103.114-.205.156-.313.062-.178.18-.314.31-.44.062-.059.136-.087.224-.059.04.013.082.02.125.024.044.005.07.032.102.064.08.076.067.174.084.27.009.062-.035.086-.063.124a.092.092 0 0 0-.016.055c.003.068-.04.096-.093.116-.08.03-.164.05-.24.089-.329.178-.703.25-1.033.428-.159.087-.35.107-.53.13a2.691 2.691 0 0 0-.542.121.455.455 0 0 0-.277.247 2.207 2.207 0 0 0-.151.476 2.075 2.075 0 0 0-.008.773c.022.117.038.237.033.357a.296.296 0 0 1-.054.172c-.092.13-.12.266-.022.408.027.038.051.079.074.119.046.083.113.12.208.12.054-.002.107-.005.161.012.065.022.13.016.189-.019a.161.161 0 0 1 .184 0c.072.044.121.013.138-.074.008-.053.013-.106.021-.16a.543.543 0 0 0-.129-.465c-.034-.035-.062-.078-.096-.114a.298.298 0 0 1-.085-.254c.006-.052.012-.102.006-.151-.007-.148.03-.292.038-.44.002-.067.033-.134.061-.199a.15.15 0 0 1 .11-.091c.144-.03.289-.042.435-.016.112.016.155.092.203.181.043.078-.024.103-.045.152a2.722 2.722 0 0 0-.235.834c-.034.294-.017.594.067.885.03.115.054.235-.04.34-.024.025-.03.062-.035.098-.026.23-.053.46-.049.692.002.066.02.12.07.165.026.027.06.053.066.093.02.135.073.26.099.393.04.207.008.41-.072.601-.04.093-.099.177-.129.272a.42.42 0 0 1-.118.195.269.269 0 0 0-.1.202c0 .05-.028.075-.071.094a.362.362 0 0 0-.158.132c-.051.075-.115.134-.176.2-.091.095-.18.19-.266.289a.473.473 0 0 0-.09.133c-.047.124-.127.222-.203.325-.113.157-.23.309-.333.473-.01.01-.018.02-.024.03-.195.039-.393.056-.595.046-.184-.009-.369-.034-.55-.04-.161-.006-.273-.025-.406-.12-.247-.178-.36-.423-.43-.704a.258.258 0 0 1 .009-.182.217.217 0 0 0-.116-.291c-.175-.067-.177-.227-.161-.333.068-.49-.084-.943-.221-1.39-.162-.521-.28-1.04-.268-1.589.004-.25.028-.5.023-.744-.004-.286-.123-.567-.24-.828-.115-.256-.18-.522-.249-.79-.108-.438-.297-.855-.386-1.303-.014-.07-.024-.14-.042-.208-.046-.176-.093-.345.19-.345.044 0 .11-.078.126-.133.07-.22.16-.437.116-.674-.014-.069-.023-.123.04-.166.194-.133.168-.353.213-.544.039-.171-.007-.359.153-.505.054-.05.025-.188.039-.344.33.48.737.836.837 1.391.026.144.076.3.23.39.059.037.132.126.126.18-.034.237.15.232.28.257.187.037.383.039.574.062.106.01.169-.027.16-.138-.007-.12.09-.2.108-.307.03-.169-.035-.33-.047-.488-.02-.237-.09-.454-.134-.678-.047-.245-.128-.462-.353-.612-.151-.1-.132-.29-.074-.42.09-.209-.013-.287-.168-.33-.146-.04-.238-.104-.262-.26a.445.445 0 0 0-.2-.304.548.548 0 0 1-.251-.386c-.052-.265-.13-.523-.17-.795-.044-.28-.013-.564-.077-.835-.068-.286-.145-.587-.06-.86.206-.66-.159-1.177-.361-1.74a3.617 3.617 0 0 0-.175-.387c-.038-.074.022-.09.054-.123l.29-.312c.103-.11.059-.218-.041-.273-.135-.077-.187-.204-.265-.31.01-.042.034-.044.062-.044.249.006.352-.132.38-.38.002-.026-.037-.03-.004-.023.125.033.182-.013.225-.058.037-.042.066-.081.123-.07.041.01.046-.037.068-.058.036-.037.04-.085.037-.13-.029-.378.135-.702.29-1.03.14-.303.013-.587-.153-.813a2.44 2.44 0 0 0-1.178-.872c-.301-.105-.62-.181-.94-.042-.031.014-.076.078-.123-.013-.164-.311-.257-.348-.586-.277a.862.862 0 0 0-.646.83c.005.124.067.24.143.327.09.1.095.196.073.314a.803.803 0 0 0 .087.563c.058.101.059.234.086.353.019.071-.027.103-.08.099-.194-.011-.221.156-.294.27-.066.101-.22.19-.084.35.03.034.007.074-.048.103-.45.245-.758.629-1.038 1.05a.768.768 0 0 1-.51.333c-.292.045-.393.263-.503.48-.09.175-.048.37-.024.548.042.332.03.666.105.995.073.322-.208.572-.28.871-.124.511-.464.913-.689 1.372-.045.09-.11.189-.076.273.071.177-.037.262-.117.394-.2.343-.384.7-.269 1.125.048.18-.05.345-.052.523-.006.38-.041.758-.06 1.138-.008.17.009.34.146.46.055.047.032.091.032.14 0 .225.051.424.281.526.032.013.05.026.065.06.11.25.377.27.578.39.06.036.134-.005.18-.072.076-.111.148-.227.185-.359.016-.069-.009-.14.13-.121.139.02.103.086.105.163.004.19-.006.382.02.569.06.402-.018.799-.022 1.197 0 .13-.075.252-.132.375-.095.207-.17.419-.344.583-.044.04-.052.159-.031.227.083.244-.08.403-.184.58-.25.417-.524.819-.738 1.258-.063.13-.123.27-.151.414-.094.49-.284.947-.465 1.406-.06.155-.063.317-.101.474a1.161 1.161 0 0 1-.167.376c-.155.244-.337.488-.275.811a.14.14 0 0 1-.016.075c-.185.356-.303.735-.416 1.117-.833.125-1.637.295-2.216.527l.14-.644s-3.403.434-5.477 1.56l.015-.58s-3.212 1.06-4.781 2.626l-.039-.5s-1.407.836-2.911 2.01l-.501-.026-.497.018s-3.994 2.159-5.791 3.009c-.137.066-.264.12-.394.178-1.93.72-4.057.612-6.164.43l-1.275-.11c-.004-.043-.218-.086-.478-.129 3.757-.981 6.927-2.54 6.927-2.54l-.663-.137c3.143-1.516 5.64-4.34 5.64-4.34l-.8.058c3.733-3.28 5.071-5.735 5.071-5.735l-.72-.109c2.955-2.405 4.404-6.009 4.404-6.009l-.73.01c2.507-2.833 3.227-6.302 3.227-6.302l-.831.014c1.549-2.298 2.125-6.587 2.125-6.587l-.735.248c.793-4.986.565-6.486.565-6.486l-.684.172c-.448-2.77.915-7.17.915-7.17l-.992.179c.422-2.417 1.997-6.206 1.997-6.206s-3.285 4.538-5.431 6.045l-.23-.525s-2.618 3.434-5.97 6.16l-.303-.482s-2.506 3.001-3.635 5.21l-.442-.47s-2.028 2.757-3.397 5.799l-.392-.492s-2.296 4.11-2.834 6.472l-.562-.368s-1.925 4.322-2.13 6.533l-.517-.405s-1.203 3.571-1.158 6.107l-.519-.257s-.546 3.641.134 5.855l-.47-.169s.162 2.967.859 5.56a.182.182 0 0 0-.016-.004c-.168.32-.504.64-.813.739-1.135.369-2.302.746-3.481.854-3.777.347-7.562.613-11.346.892 2.961-1.676 5.211-3.553 5.211-3.553l-.664-.016c2.708-2.226 4.537-5.718 4.537-5.718l-.758.22c2.92-4.218 3.708-7.091 3.708-7.091l-.713.025c2.35-3.136 3.014-7.25 3.014-7.25l-.699.152c1.833-3.502 1.826-7.331 1.826-7.331l-.795.176c1.022-2.747.712-7.42.712-7.42l-.655.406c-.242-5.458-.764-7.008-.764-7.008l-.622.318c-.988-2.86-.565-7.806-.565-7.806l-.914.384c-.085-2.655.664-6.99.664-6.99zm37.645 47.583c.002-.002.004-.014 0-.018-.172-.203.015-.311.114-.442a.563.563 0 0 0 .123-.381c-.023-.359.168-.631.361-.897.229-.313.322-.685.483-1.025.056-.118.094-.246.18-.341.131-.146.083-.335.15-.498.128-.31.316-.592.434-.903.185-.475.556-.815.81-1.24.1-.164.206-.326.281-.504.047-.114.113-.213.195-.332.163.246.253.512.362.767.24.567.445 1.148.62 1.74.073.238.03.488.056.734.046.415.124.824.201 1.233.051.27.151.515.285.753a.807.807 0 0 1 .121.425c-.01.292.25.456.333.705.016.049.06.098.055.143-.024.21.038.388.126.556-1.15.01-2.382.08-3.262.294l.09-.668s-.939.024-2.13.125c-.051-.058-.077-.124.012-.226zm8.289 1.015c.062-.046.11-.109.17-.156.044-.036.049-.096.093-.132.143-.11.272-.238.417-.349.187-.144.37-.294.52-.477a.66.66 0 0 1 .46-.256.63.63 0 0 0 .27-.096c.042-.025.088-.046.13-.072.105-.066.216-.123.294-.221.155-.195.29-.402.404-.622.08-.156.191-.29.303-.424.008-.008.02-.015.033.004-.05.084-.107.172-.115.273-.015.16-.094.293-.154.434-.12.285-.25.566-.302.875a.262.262 0 0 1-.033.11c-.07.094-.113.204-.169.304-.063.107-.159.18-.222.281-.064.103-.14.193-.232.273a.348.348 0 0 0-.08.422 23.198 23.198 0 0 0-1.828-.049c-.014-.043-.006-.084.041-.122z" mask="url(#c)"/>
        </g>
        <path fill="#1D1D1B" d="M0 89.659h2.35v8.133h5.325v2.033H0zM9.136 89.659h8.057v1.989H11.47v2.063h5.036V95.7H11.47v2.135h5.798v1.99H9.136zM18.318 98.344l1.389-1.583c.96.755 1.968 1.235 3.188 1.235.962 0 1.542-.363 1.542-.959v-.03c0-.566-.366-.856-2.152-1.292-2.15-.524-3.54-1.09-3.54-3.108v-.03c0-1.845 1.557-3.063 3.738-3.063 1.557 0 2.884.464 3.968 1.291l-1.22 1.686c-.947-.625-1.878-1.003-2.777-1.003-.9 0-1.374.392-1.374.887v.028c0 .668.457.886 2.304 1.336 2.167.538 3.388 1.28 3.388 3.05v.03c0 2.019-1.618 3.152-3.922 3.152-1.618 0-3.25-.538-4.532-1.627M32.778 89.659h8.056v1.989h-5.722v2.063h5.036V95.7h-5.036v2.135h5.799v1.99h-8.133zM41.96 98.344l1.388-1.583c.962.755 1.969 1.235 3.189 1.235.962 0 1.542-.363 1.542-.959v-.03c0-.566-.367-.856-2.152-1.292-2.151-.524-3.54-1.09-3.54-3.108v-.03c0-1.845 1.556-3.063 3.738-3.063 1.557 0 2.885.464 3.968 1.291l-1.22 1.686c-.947-.625-1.878-1.003-2.778-1.003-.9 0-1.373.392-1.373.887v.028c0 .668.457.886 2.304 1.336 2.166.538 3.387 1.28 3.387 3.05v.03c0 2.019-1.617 3.152-3.922 3.152-1.617 0-3.25-.538-4.531-1.627M56.36 94.785c1.175 0 1.862-.669 1.862-1.54v-.028c0-1.002-.732-1.54-1.907-1.54h-1.816v3.108h1.861zm-4.211-5.126h4.364c2.548 0 4.09 1.437 4.09 3.514v.03c0 2.352-1.923 3.572-4.32 3.572H54.5v3.05h-2.35V89.66zM68.166 95.57l-1.419-3.297-1.418 3.297h2.837zm-2.472-5.984h2.167l4.578 10.24h-2.457l-.976-2.28h-4.517l-.976 2.28h-2.396l4.577-10.24zM73.304 94.771v-.029c0-2.89 2.289-5.258 5.57-5.258 2.014 0 3.22.639 4.212 1.57l-1.496 1.64c-.824-.712-1.663-1.148-2.732-1.148-1.8 0-3.097 1.424-3.097 3.168v.028c0 1.743 1.267 3.195 3.097 3.195 1.221 0 1.97-.465 2.809-1.19l1.494 1.437c-1.098 1.12-2.319 1.816-4.378 1.816-3.144 0-5.479-2.31-5.479-5.229M84.729 89.659h8.056v1.989h-5.722v2.063h5.035V95.7h-5.035v2.135h5.799v1.99h-8.133zM93.91 98.344L95.3 96.76c.961.755 1.968 1.235 3.19 1.235.96 0 1.54-.363 1.54-.959v-.03c0-.566-.365-.856-2.152-1.292-2.15-.524-3.54-1.09-3.54-3.108v-.03c0-1.845 1.557-3.063 3.739-3.063 1.556 0 2.884.464 3.968 1.291l-1.221 1.686c-.946-.625-1.877-1.003-2.777-1.003-.9 0-1.374.392-1.374.887v.028c0 .668.458.886 2.304 1.336 2.167.538 3.388 1.28 3.388 3.05v.03c0 2.019-1.617 3.152-3.922 3.152-1.617 0-3.25-.538-4.532-1.627M108.37 89.659h2.167l5.005 6.26v-6.26h2.32v10.166h-2l-5.172-6.463v6.463h-2.32zM126.249 95.57l-1.42-3.297-1.418 3.297h2.838zm-2.472-5.984h2.167l4.578 10.24h-2.457l-.976-2.28h-4.518l-.976 2.28h-2.396l4.578-10.24zM134.346 91.721h-3.25V89.66h8.85v2.062h-3.25v8.104h-2.35zM141.27 95.469v-5.81h2.35v5.75c0 1.657.87 2.514 2.304 2.514 1.434 0 2.304-.828 2.304-2.44v-5.825h2.35v5.737c0 3.08-1.816 4.59-4.685 4.59-2.869 0-4.623-1.524-4.623-4.516M157.394 94.596c1.145 0 1.801-.58 1.801-1.437v-.03c0-.958-.702-1.452-1.846-1.452h-2.335v2.92h2.38zm-4.73-4.937h4.884c1.358 0 2.41.362 3.112 1.03.596.567.915 1.366.915 2.325v.029c0 1.641-.93 2.672-2.289 3.151l2.61 3.631h-2.747l-2.289-3.252h-1.846v3.252h-2.35V89.659zM163.386 89.659h8.057v1.989h-5.722v2.063h5.034V95.7h-5.034v2.135h5.798v1.99h-8.133zM173.3 89.659h2.35v8.133h5.326v2.033H173.3zM181.704 98.344l1.39-1.583c.96.755 1.968 1.235 3.188 1.235.962 0 1.541-.363 1.541-.959v-.03c0-.566-.366-.856-2.15-1.292-2.153-.524-3.541-1.09-3.541-3.108v-.03c0-1.845 1.556-3.063 3.738-3.063 1.557 0 2.885.464 3.968 1.291l-1.221 1.686c-.945-.625-1.877-1.003-2.777-1.003-.9 0-1.373.392-1.373.887v.028c0 .668.457.886 2.304 1.336 2.166.538 3.386 1.28 3.386 3.05v.03c0 2.019-1.617 3.152-3.92 3.152-1.618 0-3.25-.538-4.533-1.627M198.514 91.677v6.13h1.815c1.923 0 3.221-1.235 3.221-3.036v-.03c0-1.8-1.298-3.064-3.22-3.064h-1.816zm-2.35-2.018h4.165c3.357 0 5.677 2.193 5.677 5.054v.029c0 2.861-2.32 5.083-5.677 5.083h-4.165V89.66zM207.787 89.659h8.057v1.989h-5.722v2.063h5.035V95.7h-5.035v2.135h5.798v1.99h-8.133zM221.972 89.659h2.35v8.133h5.325v2.033h-7.675zM237.241 95.57l-1.418-3.297-1.42 3.297h2.838zm-2.471-5.984h2.167l4.577 10.24h-2.457l-.976-2.28h-4.516l-.978 2.28h-2.396l4.579-10.24z"/>
        <path fill="#E20918" d="M246.499 89.915h3.568l2.196 3.426 2.191-3.426h3.574v9.748h-3.408v-4.832l-2.357 3.467h-.06l-2.356-3.467v4.832h-3.348zM260 89.915h8.733v2.673h-5.368v.988h5.003v2.356h-5.003v1.059h5.44v2.672h-8.804zM270.532 89.915h3.423v6.964h4.814v2.784h-8.237z"/>
    </g>
</svg>
